HIERARCHY
ROOT Pelvis
{
	OFFSET 0.000000 0.941512 0.000000
	CHANNELS 6 Xposition Yposition Zposition Zrotation Yrotation Xrotation 
	JOINT Pelvis_L_Hip
	{
		OFFSET 0.000000 0.000000 0.000000
		CHANNELS 3 Zrotation Yrotation Xrotation
		JOINT L_Hip
		{
			OFFSET 0.062321 -0.080322 -0.016990
			CHANNELS 3 Zrotation Yrotation Xrotation
			JOINT L_Knee
			{
				OFFSET 0.093051 -0.381305 -0.029784
				CHANNELS 3 Zrotation Yrotation Xrotation
				JOINT L_Ankle
				{
					OFFSET -0.010371 -0.431000 -0.033614
					CHANNELS 3 Zrotation Yrotation Xrotation
					End Site #name: L_Foot
					{
						OFFSET 0.069299 -0.038670 0.119418
					}
				}
			}
		}
	}
	JOINT Pelvis_R_Hip
	{
		OFFSET 0.000000 0.000000 0.000000
		CHANNELS 3 Zrotation Yrotation Xrotation
		JOINT R_Hip
		{
			OFFSET -0.055334 -0.094904 -0.002373
			CHANNELS 3 Zrotation Yrotation Xrotation
			JOINT R_Knee
			{
				OFFSET -0.064207 -0.384370 -0.019592
				CHANNELS 3 Zrotation Yrotation Xrotation
				JOINT R_Ankle
				{
					OFFSET 0.025418 -0.419734 -0.065953
					CHANNELS 3 Zrotation Yrotation Xrotation
					End Site #name: R_Foot
					{
						OFFSET -0.057233 -0.039888 0.132134
					}
				}
			}
		}
	}
	JOINT Pelvis_Spine1
	{
		OFFSET 0.000000 0.000000 0.000000
		CHANNELS 3 Zrotation Yrotation Xrotation
		JOINT Spine1
		{
			OFFSET -0.005562 0.124093 -0.043360
			CHANNELS 3 Zrotation Yrotation Xrotation
			JOINT Spine2
			{
				OFFSET 0.012244 0.139499 0.029894
				CHANNELS 3 Zrotation Yrotation Xrotation
				JOINT Spine3
				{
					OFFSET -0.002556 0.056561 0.009225
					CHANNELS 3 Zrotation Yrotation Xrotation
					JOINT Spine3_Neck
					{
						OFFSET 0.000000 0.000000 0.000000
						CHANNELS 3 Zrotation Yrotation Xrotation
						JOINT Neck
						{
							OFFSET -0.005205 0.217920 -0.024551
							CHANNELS 3 Zrotation Yrotation Xrotation
							End Site #name: Head
							{
								OFFSET 0.002365 0.091850 0.046637
							}
						}
					}
					JOINT Spine3_L_Collar
					{
						OFFSET 0.000000 0.000000 0.000000
						CHANNELS 3 Zrotation Yrotation Xrotation
						JOINT L_Collar
						{
							OFFSET 0.072225 0.116603 -0.009480
							CHANNELS 3 Zrotation Yrotation Xrotation
							JOINT L_Shoulder
							{
								OFFSET 0.115937 -0.058643 -0.021018
								CHANNELS 3 Zrotation Yrotation Xrotation
								JOINT L_Elbow
								{
									OFFSET 0.021994 -0.254722 -0.024492
									CHANNELS 3 Zrotation Yrotation Xrotation
									End Site #name: L_Wrist
									{
										OFFSET 0.048810 -0.240214 0.103329
									}
								}
							}
						}
					}
					JOINT Spine3_R_Collar
					{
						OFFSET 0.000000 0.000000 0.000000
						CHANNELS 3 Zrotation Yrotation Xrotation
						JOINT R_Collar
						{
							OFFSET -0.073372 0.120704 -0.024611
							CHANNELS 3 Zrotation Yrotation Xrotation
							JOINT R_Shoulder
							{
								OFFSET -0.108089 -0.054969 -0.020504
								CHANNELS 3 Zrotation Yrotation Xrotation
								JOINT R_Elbow
								{
									OFFSET -0.033684 -0.260739 0.009889
									CHANNELS 3 Zrotation Yrotation Xrotation
									End Site #name: R_Wrist
									{
										OFFSET -0.067980 -0.232763 0.118463
									}
								}
							}
						}
					}
				}
			}
		}
	}
}
MOTION
Frames: 15
Frame Time: 0.041667
0.000000 0.915486 0.000000 -4.473435 -5.457284 -4.995804 0.000000 0.000000 0.000000 -0.326379 -6.230380 -26.071174 -8.282276 2.270489 26.196501 5.942387 14.068235 -2.412214 0.000000 0.000000 0.000000 13.467644 -2.367643 6.284970 -2.802297 1.686929 13.229825 -5.112358 13.064225 -16.659750 0.000000 0.000000 0.000000 6.022250 -3.943907 19.983720 -0.213309 -0.143770 -3.994785 2.308553 4.747162 1.134751 0.000000 0.000000 0.000000 -7.226353 3.884820 4.254272 0.000000 0.000000 0.000000 14.267523 4.326355 5.782024 -9.799514 2.338352 7.869075 0.464182 -1.160453 -6.683725 0.000000 0.000000 0.000000 -23.220387 7.869230 -1.520596 11.575200 -3.512722 16.809144 10.947275 9.799020 -9.172336 
-0.007579 0.910063 0.023811 -4.990431 -5.883280 -4.017500 0.000000 0.000000 0.000000 -2.043393 -6.683828 -26.845884 -4.739108 0.851550 17.920958 4.715774 12.409787 -1.049472 0.000000 0.000000 0.000000 14.330437 -2.608280 6.740460 -2.946201 1.783362 13.690864 -5.775460 13.420844 -17.985091 0.000000 0.000000 0.000000 6.162572 -3.965326 19.790182 -0.545654 -0.106752 -4.116002 2.445425 5.169543 0.852860 0.000000 0.000000 0.000000 -7.480994 4.005345 3.982489 0.000000 0.000000 0.000000 14.294717 4.902133 6.174961 -9.015653 2.346980 8.728387 1.113482 -0.688306 -5.955141 0.000000 0.000000 0.000000 -23.755474 8.967162 -2.369391 11.133801 -3.203783 15.723913 9.257267 8.911779 -9.677628 
-0.015552 0.903031 0.052129 -5.392295 -6.189022 -3.080701 0.000000 0.000000 0.000000 -3.056498 -6.875685 -27.017882 -1.928270 0.141475 12.968180 3.867375 11.695303 0.215514 0.000000 0.000000 0.000000 14.927966 -2.883365 7.379808 -2.823473 1.837441 14.463699 -6.489147 13.653592 -19.375418 0.000000 0.000000 0.000000 6.004719 -3.832973 19.289770 -0.825556 -0.077034 -4.237779 2.381333 5.467001 0.516019 0.000000 0.000000 0.000000 -7.426163 3.964843 3.897533 0.000000 0.000000 0.000000 14.245587 5.351181 6.458143 -8.122337 2.273348 9.274729 1.304624 -0.519976 -5.577712 0.000000 0.000000 0.000000 -24.095946 9.888001 -3.102606 11.143530 -2.928597 14.553489 7.789222 8.238989 -10.361128 
-0.024763 0.895885 0.086044 -5.191609 -6.531517 -2.784126 0.000000 0.000000 0.000000 -3.176780 -6.809599 -26.752407 -1.815564 0.127800 13.590622 3.329933 12.426833 1.961641 0.000000 0.000000 0.000000 14.927678 -3.400167 9.122894 -2.757786 1.905405 15.204063 -7.015856 13.620221 -20.327347 0.000000 0.000000 0.000000 4.823883 -3.304669 18.930153 -1.116013 -0.032322 -4.073706 2.278644 5.575965 -0.006954 0.000000 0.000000 0.000000 -6.931381 3.690415 3.926308 0.000000 0.000000 0.000000 14.005320 5.289331 6.332263 -7.250417 2.158210 9.585180 1.618605 -0.307539 -5.265828 0.000000 0.000000 0.000000 -24.070030 10.652842 -3.718623 11.671196 -2.770266 13.703053 6.444449 8.052431 -12.064104 
-0.033996 0.891835 0.122582 -4.050640 -6.467414 -2.752929 0.000000 0.000000 0.000000 -3.411516 -6.989327 -27.263917 -3.557351 0.579762 17.633762 3.395741 14.264052 3.388006 0.000000 0.000000 0.000000 14.272871 -3.712210 10.508326 -2.627582 2.083010 17.200351 -7.159968 12.222622 -20.235355 0.000000 0.000000 0.000000 2.436277 -2.347719 18.790488 -1.409640 0.004308 -4.075672 2.150339 5.303241 -0.443274 0.000000 0.000000 0.000000 -6.076888 3.215368 3.759636 0.000000 0.000000 0.000000 13.693360 4.505504 5.704977 -6.795055 2.039290 9.366519 2.131206 0.005541 -4.920658 0.000000 0.000000 0.000000 -23.452488 10.906316 -3.938542 12.547219 -2.622375 12.819432 5.217758 8.208819 -14.505446 
-0.043058 0.891995 0.159724 -3.003507 -5.962974 -2.671913 0.000000 0.000000 0.000000 -3.944073 -7.308080 -28.009816 -4.994303 1.116871 22.749678 4.497194 14.916471 1.498571 0.000000 0.000000 0.000000 13.675116 -3.319436 9.392933 -1.184777 2.239125 23.482740 -6.313306 9.643826 -17.882698 0.000000 0.000000 0.000000 0.250902 -1.480411 18.391584 -1.765435 0.042781 -4.173736 1.962793 4.891802 -0.203211 0.000000 0.000000 0.000000 -5.341366 2.820545 3.825728 0.000000 0.000000 0.000000 13.546738 3.167037 4.780612 -7.360965 1.934913 8.012681 2.593390 0.270289 -4.687079 0.000000 0.000000 0.000000 -22.985861 10.977467 -4.016728 13.830476 -2.467407 11.794346 4.403053 8.771026 -17.317504 
-0.051389 0.894264 0.198690 -2.799730 -5.750250 -3.137412 0.000000 0.000000 0.000000 -4.108386 -6.979154 -26.575363 -5.761809 1.485268 25.868040 5.761799 14.984572 -1.312633 0.000000 0.000000 0.000000 12.092752 -2.146782 5.840744 4.060306 0.900444 34.593988 -3.437777 6.142530 -10.745036 0.000000 0.000000 0.000000 -0.722660 -1.100039 18.206755 -2.205809 0.089171 -4.311158 1.750137 4.719518 0.372841 0.000000 0.000000 0.000000 -5.165979 2.761525 4.884444 0.000000 0.000000 0.000000 13.869483 1.813423 3.971597 -9.133597 1.841222 5.656958 2.436574 0.263175 -4.330594 0.000000 0.000000 0.000000 -23.532098 11.418051 -4.335418 15.060896 -2.378030 11.089340 4.948110 10.363274 -20.102783 
-0.059322 0.895754 0.237589 -2.445177 -5.854315 -4.240619 0.000000 0.000000 0.000000 -4.287986 -6.226921 -23.579334 -6.735649 1.913591 27.569595 6.997456 14.788006 -4.333179 0.000000 0.000000 0.000000 7.925750 -0.641266 1.200746 11.936777 -3.083558 45.729182 0.323833 1.068642 0.001412 0.000000 0.000000 0.000000 -1.853230 -0.680846 18.667038 -2.634076 0.113187 -4.770869 1.689470 4.385740 0.833887 0.000000 0.000000 0.000000 -4.795505 2.590050 5.784410 0.000000 0.000000 0.000000 14.576465 0.528322 3.246737 -10.867711 1.648469 3.155433 1.007704 -0.456475 -4.545605 0.000000 0.000000 0.000000 -24.120655 11.740858 -4.506613 15.446533 -2.138350 10.073974 6.979308 12.761596 -21.780257 
-0.067443 0.895552 0.272344 -2.292053 -5.740236 -4.985416 0.000000 0.000000 0.000000 -4.009060 -5.518984 -21.022143 -7.688647 2.322495 28.862796 8.024126 14.252118 -7.111866 0.000000 0.000000 0.000000 3.597898 0.716018 -4.440730 18.414186 -7.731625 53.268331 -0.904440 -9.367391 5.474921 0.000000 0.000000 0.000000 -2.573617 -0.416023 18.842411 -2.957845 0.137397 -4.990401 1.525379 3.769387 1.048036 0.000000 0.000000 0.000000 -4.161451 2.232630 5.377453 0.000000 0.000000 0.000000 14.925286 -1.126314 2.156962 -11.487215 1.355486 1.146607 -1.115505 -1.808155 -6.032559 0.000000 0.000000 0.000000 -24.102076 11.900827 -4.566332 15.441148 -1.815023 8.863058 8.355584 14.572432 -23.150533 
-0.075453 0.897681 0.303241 -2.649695 -5.381609 -5.415012 0.000000 0.000000 0.000000 -3.372867 -4.776962 -18.467032 -7.933186 2.395309 29.188298 8.590800 13.043662 -9.212329 0.000000 0.000000 0.000000 0.731169 1.786891 -10.400896 21.355222 -10.209212 55.490519 -6.388631 -23.700056 6.909718 0.000000 0.000000 0.000000 -2.568280 -0.455708 19.069718 -3.153934 0.152533 -5.097460 1.468608 3.329859 0.778313 0.000000 0.000000 0.000000 -3.578937 1.892706 4.765490 0.000000 0.000000 0.000000 14.800012 -3.117473 0.761551 -11.391769 0.934264 -1.016594 -3.122720 -3.073451 -7.082497 0.000000 0.000000 0.000000 -23.628916 12.102191 -4.748806 15.855545 -1.714656 8.458211 7.860116 14.846145 -24.520406 
-0.083566 0.904643 0.332000 -3.212751 -4.736163 -6.208607 0.000000 0.000000 0.000000 -3.073255 -3.780899 -14.751124 -6.950739 1.902983 27.922983 8.478903 11.065254 -10.140392 0.000000 0.000000 0.000000 -0.355897 2.491237 -14.822665 19.659181 -8.822715 52.531096 -10.663012 -32.780612 7.695394 0.000000 0.000000 0.000000 -2.302813 -0.667110 20.194248 -3.283591 0.114599 -5.839457 1.676717 3.139522 0.731785 0.000000 0.000000 0.000000 -3.105668 1.616730 4.347394 0.000000 0.000000 0.000000 14.951005 -4.794644 -0.338573 -11.572829 0.285665 -4.499332 -4.741097 -3.845961 -6.850484 0.000000 0.000000 0.000000 -23.240828 12.010571 -4.744312 16.854978 -1.668282 8.147544 6.859275 13.979534 -24.519992 
-0.092008 0.913399 0.357594 -4.041913 -3.644720 -6.463239 0.000000 0.000000 0.000000 -2.771376 -2.830509 -11.220987 -4.944880 1.045023 25.367171 7.982038 8.719203 -10.315624 0.000000 0.000000 0.000000 0.592845 3.206746 -18.344927 14.432193 -5.101171 45.775834 -11.228406 -33.404630 5.871694 0.000000 0.000000 0.000000 -1.617771 -1.073930 20.980487 -3.135748 0.030666 -6.769923 1.893202 3.023020 0.911523 0.000000 0.000000 0.000000 -2.911337 1.496821 3.963280 0.000000 0.000000 0.000000 15.426583 -6.199351 -1.185890 -12.091837 -0.466354 -8.534963 -5.762605 -4.132183 -5.987105 0.000000 0.000000 0.000000 -23.385001 11.693495 -4.563134 17.465817 -1.634451 7.918394 7.043268 13.327751 -22.858184 
-0.100261 0.921193 0.381436 -4.367710 -2.368134 -6.327851 0.000000 0.000000 0.000000 -2.991900 -1.924265 -7.830453 -2.666246 0.244159 21.781179 7.307351 6.446849 -10.042212 0.000000 0.000000 0.000000 1.711815 3.819997 -20.950652 8.143222 -1.512777 36.510947 -7.854491 -24.916230 2.853177 0.000000 0.000000 0.000000 -1.212454 -1.354935 21.333104 -2.890205 -0.020761 -7.087755 2.061886 2.912738 0.617713 0.000000 0.000000 0.000000 -2.882476 1.467678 3.736175 0.000000 0.000000 0.000000 16.147518 -7.538672 -1.975171 -12.063556 -1.129681 -11.895571 -7.193815 -4.760487 -5.641224 0.000000 0.000000 0.000000 -23.564413 11.487231 -4.479725 16.846567 -1.748550 8.417362 8.721905 13.487949 -20.348411 
-0.108754 0.924750 0.403703 -4.073694 -1.057799 -5.924515 0.000000 0.000000 0.000000 -3.407497 -1.199846 -5.204317 -1.135761 -0.180106 18.656551 6.862250 4.614886 -9.990989 0.000000 0.000000 0.000000 2.426362 4.201550 -22.545018 2.402619 0.748907 26.333389 -2.314796 -8.511485 0.947941 0.000000 0.000000 0.000000 -1.270180 -1.421418 21.405689 -2.578549 -0.045026 -6.907198 2.184925 2.872264 0.061773 0.000000 0.000000 0.000000 -2.899902 1.463508 3.340999 0.000000 0.000000 0.000000 17.100322 -8.700144 -2.631446 -11.331652 -1.626132 -14.482157 -9.081445 -5.938194 -6.323191 0.000000 0.000000 0.000000 -23.878945 11.405925 -4.495678 15.769069 -1.905257 9.189681 10.811637 13.907414 -17.849129 
-0.117280 0.923801 0.427919 -2.888339 0.073084 -6.129069 0.000000 0.000000 0.000000 -4.403759 -0.346099 -2.273297 -0.259008 -0.366993 16.457951 6.897627 3.019046 -10.734185 0.000000 0.000000 0.000000 2.258210 4.179790 -22.774152 -0.667105 1.422575 19.292735 3.500002 7.121447 2.870682 0.000000 0.000000 0.000000 -2.057908 -1.185015 21.748895 -2.334637 -0.029519 -6.236705 2.474874 3.002548 -0.680080 0.000000 0.000000 0.000000 -3.132236 1.573536 3.734348 0.000000 0.000000 0.000000 17.790975 -9.654774 -3.191002 -10.213572 -1.892805 -16.072640 -10.615660 -7.166732 -7.583155 0.000000 0.000000 0.000000 -24.193494 11.647192 -4.781096 15.041655 -2.151779 10.301335 12.069511 13.610463 -15.369341 
